<svg xmlns="http://www.w3.org/2000/svg" width="1400" height="900" viewBox="0 0 1400 900"><rect x="0" y="0" width="1400" height="900" fill="#ffffff" stroke="#ffffff" stroke-width="2" rx="8"/><text x="48" y="54" font-family="sans-serif" font-size="34px" font-weight="700" fill="#17202a">TSOP32 adapter</text><text x="48" y="91" font-family="sans-serif" font-size="18px" font-weight="400" fill="#536273">Adapter reference / Adapter005.jpg</text><text x="48" y="125" font-family="sans-serif" font-size="20px" font-weight="700" fill="#1d5f8f">Programmer compatibility: TL866A, TL866CS</text><rect x="48" y="196" width="470" height="346" fill="#ffffff" stroke="#1d5f8f" stroke-width="2" rx="8"/><text x="68" y="232" font-family="sans-serif" font-size="22px" font-weight="700" fill="#17202a">TSOP32</text><rect x="148" y="274" width="270" height="186" fill="#eaf3f8" stroke="#1d5f8f" stroke-width="2" rx="8"/><line x1="124" y1="290" x2="148" y2="290" stroke="#1d5f8f" stroke-width="3"/><line x1="124" y1="300" x2="148" y2="300" stroke="#1d5f8f" stroke-width="3"/><line x1="124" y1="310" x2="148" y2="310" stroke="#1d5f8f" stroke-width="3"/><line x1="124" y1="320" x2="148" y2="320" stroke="#1d5f8f" stroke-width="3"/><line x1="124" y1="331" x2="148" y2="331" stroke="#1d5f8f" stroke-width="3"/><line x1="124" y1="341" x2="148" y2="341" stroke="#1d5f8f" stroke-width="3"/><line x1="124" y1="351" x2="148" y2="351" stroke="#1d5f8f" stroke-width="3"/><line x1="124" y1="361" x2="148" y2="361" stroke="#1d5f8f" stroke-width="3"/><line x1="124" y1="372" x2="148" y2="372" stroke="#1d5f8f" stroke-width="3"/><line x1="124" y1="382" x2="148" y2="382" stroke="#1d5f8f" stroke-width="3"/><line x1="124" y1="392" x2="148" y2="392" stroke="#1d5f8f" stroke-width="3"/><line x1="124" y1="402" x2="148" y2="402" stroke="#1d5f8f" stroke-width="3"/><line x1="124" y1="413" x2="148" y2="413" stroke="#1d5f8f" stroke-width="3"/><line x1="124" y1="423" x2="148" y2="423" stroke="#1d5f8f" stroke-width="3"/><line x1="124" y1="433" x2="148" y2="433" stroke="#1d5f8f" stroke-width="3"/><line x1="124" y1="444" x2="148" y2="444" stroke="#1d5f8f" stroke-width="3"/><line x1="418" y1="290" x2="442" y2="290" stroke="#1d5f8f" stroke-width="3"/><line x1="418" y1="300" x2="442" y2="300" stroke="#1d5f8f" stroke-width="3"/><line x1="418" y1="310" x2="442" y2="310" stroke="#1d5f8f" stroke-width="3"/><line x1="418" y1="320" x2="442" y2="320" stroke="#1d5f8f" stroke-width="3"/><line x1="418" y1="331" x2="442" y2="331" stroke="#1d5f8f" stroke-width="3"/><line x1="418" y1="341" x2="442" y2="341" stroke="#1d5f8f" stroke-width="3"/><line x1="418" y1="351" x2="442" y2="351" stroke="#1d5f8f" stroke-width="3"/><line x1="418" y1="361" x2="442" y2="361" stroke="#1d5f8f" stroke-width="3"/><line x1="418" y1="372" x2="442" y2="372" stroke="#1d5f8f" stroke-width="3"/><line x1="418" y1="382" x2="442" y2="382" stroke="#1d5f8f" stroke-width="3"/><line x1="418" y1="392" x2="442" y2="392" stroke="#1d5f8f" stroke-width="3"/><line x1="418" y1="402" x2="442" y2="402" stroke="#1d5f8f" stroke-width="3"/><line x1="418" y1="413" x2="442" y2="413" stroke="#1d5f8f" stroke-width="3"/><line x1="418" y1="423" x2="442" y2="423" stroke="#1d5f8f" stroke-width="3"/><line x1="418" y1="433" x2="442" y2="433" stroke="#1d5f8f" stroke-width="3"/><line x1="418" y1="444" x2="442" y2="444" stroke="#1d5f8f" stroke-width="3"/><circle cx="166" cy="292" r="8" fill="#1d5f8f" stroke="#1d5f8f" stroke-width="2"/><text x="182" y="300" font-family="sans-serif" font-size="14px" font-weight="400" fill="#536273">Pin 1</text><text x="168" y="367" font-family="sans-serif" font-size="18px" font-weight="400" fill="#17202a">32-pin package</text><text x="68" y="504" font-family="sans-serif" font-size="15px" font-weight="400" fill="#536273">Place the TSOP32 package in the central socket with pin 1</text><text x="68" y="524" font-family="sans-serif" font-size="15px" font-weight="400" fill="#536273">aligned to the marked end.</text><rect x="600" y="196" width="752" height="416" fill="#eaf3f8" stroke="#1d5f8f" stroke-width="2" rx="8"/><text x="620" y="232" font-family="sans-serif" font-size="22px" font-weight="700" fill="#17202a">Adapter005</text><rect x="715" y="304" width="520" height="238" fill="#ffffff" stroke="#1d5f8f" stroke-width="2" rx="8"/><rect x="860" y="330" width="230" height="186" fill="#eaf3f8" stroke="#1d5f8f" stroke-width="2" rx="8"/><line x1="836" y1="346" x2="860" y2="346" stroke="#1d5f8f" stroke-width="3"/><line x1="836" y1="356" x2="860" y2="356" stroke="#1d5f8f" stroke-width="3"/><line x1="836" y1="366" x2="860" y2="366" stroke="#1d5f8f" stroke-width="3"/><line x1="836" y1="376" x2="860" y2="376" stroke="#1d5f8f" stroke-width="3"/><line x1="836" y1="387" x2="860" y2="387" stroke="#1d5f8f" stroke-width="3"/><line x1="836" y1="397" x2="860" y2="397" stroke="#1d5f8f" stroke-width="3"/><line x1="836" y1="407" x2="860" y2="407" stroke="#1d5f8f" stroke-width="3"/><line x1="836" y1="417" x2="860" y2="417" stroke="#1d5f8f" stroke-width="3"/><line x1="836" y1="428" x2="860" y2="428" stroke="#1d5f8f" stroke-width="3"/><line x1="836" y1="438" x2="860" y2="438" stroke="#1d5f8f" stroke-width="3"/><line x1="836" y1="448" x2="860" y2="448" stroke="#1d5f8f" stroke-width="3"/><line x1="836" y1="458" x2="860" y2="458" stroke="#1d5f8f" stroke-width="3"/><line x1="836" y1="469" x2="860" y2="469" stroke="#1d5f8f" stroke-width="3"/><line x1="836" y1="479" x2="860" y2="479" stroke="#1d5f8f" stroke-width="3"/><line x1="836" y1="489" x2="860" y2="489" stroke="#1d5f8f" stroke-width="3"/><line x1="836" y1="500" x2="860" y2="500" stroke="#1d5f8f" stroke-width="3"/><line x1="1090" y1="346" x2="1114" y2="346" stroke="#1d5f8f" stroke-width="3"/><line x1="1090" y1="356" x2="1114" y2="356" stroke="#1d5f8f" stroke-width="3"/><line x1="1090" y1="366" x2="1114" y2="366" stroke="#1d5f8f" stroke-width="3"/><line x1="1090" y1="376" x2="1114" y2="376" stroke="#1d5f8f" stroke-width="3"/><line x1="1090" y1="387" x2="1114" y2="387" stroke="#1d5f8f" stroke-width="3"/><line x1="1090" y1="397" x2="1114" y2="397" stroke="#1d5f8f" stroke-width="3"/><line x1="1090" y1="407" x2="1114" y2="407" stroke="#1d5f8f" stroke-width="3"/><line x1="1090" y1="417" x2="1114" y2="417" stroke="#1d5f8f" stroke-width="3"/><line x1="1090" y1="428" x2="1114" y2="428" stroke="#1d5f8f" stroke-width="3"/><line x1="1090" y1="438" x2="1114" y2="438" stroke="#1d5f8f" stroke-width="3"/><line x1="1090" y1="448" x2="1114" y2="448" stroke="#1d5f8f" stroke-width="3"/><line x1="1090" y1="458" x2="1114" y2="458" stroke="#1d5f8f" stroke-width="3"/><line x1="1090" y1="469" x2="1114" y2="469" stroke="#1d5f8f" stroke-width="3"/><line x1="1090" y1="479" x2="1114" y2="479" stroke="#1d5f8f" stroke-width="3"/><line x1="1090" y1="489" x2="1114" y2="489" stroke="#1d5f8f" stroke-width="3"/><line x1="1090" y1="500" x2="1114" y2="500" stroke="#1d5f8f" stroke-width="3"/><circle cx="878" cy="348" r="8" fill="#1d5f8f" stroke="#1d5f8f" stroke-width="2"/><text x="894" y="356" font-family="sans-serif" font-size="14px" font-weight="400" fill="#536273">Pin 1</text><text x="729" y="344" font-family="sans-serif" font-size="14px" font-weight="400" fill="#536273">Package</text><text x="729" y="362" font-family="sans-serif" font-size="14px" font-weight="400" fill="#536273">footprint /</text><text x="729" y="380" font-family="sans-serif" font-size="14px" font-weight="400" fill="#536273">contact pads</text><line x1="518" y1="346" x2="600" y2="346" stroke="#1d5f8f" stroke-width="2"/><text x="620" y="564" font-family="sans-serif" font-size="15px" font-weight="400" fill="#536273">TL866</text><text x="48" y="648" font-family="sans-serif" font-size="20px" font-weight="700" fill="#17202a">Connections and notes</text><text x="48" y="678" font-family="sans-serif" font-size="16px" font-weight="400" fill="#536273">* Supports TSOP32.</text><text x="48" y="703" font-family="sans-serif" font-size="16px" font-weight="400" fill="#536273">* Align pin 1 with the adapter&#x27;s marked end.</text><text x="48" y="728" font-family="sans-serif" font-size="16px" font-weight="400" fill="#536273">* Use this adapter with the TL866 programmer.</text><text x="48" y="753" font-family="sans-serif" font-size="16px" font-weight="400" fill="#536273">Note: The complete pin mapping and dimensions are unspecified.</text></svg>
